<?xml version="1.0" encoding="UTF-8"?>
<svg width="393px" height="244px" viewBox="0 0 393 244" version="1.1" xmlns="http://www.w3.org/2000/svg" xmlns:xlink="http://www.w3.org/1999/xlink">
    <!-- Generator: Sketch 45 (43475) - http://www.bohemiancoding.com/sketch -->
    <title>Illustrations 1@3x</title>
    <desc>Created with Sketch.</desc>
    <defs>
        <linearGradient x1="50%" y1="67.6975983%" x2="50%" y2="0%" id="linearGradient-1">
            <stop stop-color="#F7F7F7" offset="0%"></stop>
            <stop stop-color="#66BBFF" stop-opacity="0.5" offset="100%"></stop>
        </linearGradient>
    </defs>
    <g id="Page-1" stroke="none" stroke-width="1" fill="none" fill-rule="evenodd">
        <g id="Illustrations-1">
            <path d="M389.233899,59.9506212 C388.614767,57.1875305 386.191642,55.1256143 383.290601,55.1256143 C383.08504,55.1256143 382.882213,55.1373347 382.681689,55.1555014 C380.862439,49.3344046 375.512794,45.1162228 369.189179,45.1162228 C363.389832,45.1162228 358.409853,48.6702959 356.220937,53.7499291 C355.020675,53.020479 353.625359,52.5915114 352.127407,52.5915114 C347.967228,52.5915114 344.555162,55.8213682 344.16707,59.9506212 L389.233899,59.9506212 Z" id="Fill-1-Copy-3" fill="#E0E0E0" fill-rule="nonzero"></path>
            <path d="M325.455332,14.0841927 C320.759198,5.70156941 311.541932,0 300.926684,0 C290.260899,0 281.006958,5.7614255 276.338258,14.2147123 C275.300385,13.9489623 274.216306,13.791563 273.095264,13.791563 C268.823348,13.791563 265.058817,15.841634 262.789587,18.9621867 C259.716973,13.9910833 254.084327,10.6507811 247.621152,10.6507811 C237.878018,10.6507811 229.970944,18.2317208 229.970944,27.5856199 L352.211914,27.5856199 C352.017854,18.5880862 344.369238,11.3482707 334.949249,11.3482707 C331.443176,11.3482707 328.181411,12.3594507 325.455332,14.0841927 Z" id="Fill-3-Copy" fill="#E0E0E0" fill-rule="nonzero"></path>
            <g id="Page-1" opacity="0.399999976" transform="translate(134.115943, 125.633907) scale(-1, 1) translate(-134.115943, -125.633907) translate(65.115943, 115.633907)" fill-rule="nonzero">
                <polygon id="Fill-1" fill="#4285F4" points="103.132913 13.124131 120.302612 13.124131 120.302612 6.5531066 103.132913 6.5531066"></polygon>
                <polygon id="Fill-2" fill="#66BBFF" points="51.6190863 13.1170348 68.788785 13.1170348 68.788785 6.54601046 51.6190863 6.54601046"></polygon>
                <polygon id="Fill-3" fill="#3362B5" points="51.6190863 6.57084695 68.788785 6.57084695 68.788785 0.000413941419 51.6190863 0.000413941419"></polygon>
                <polygon id="Fill-4" fill="#66BBFF" points="85.941926 13.1170348 103.111625 13.1170348 103.111625 6.54601046 85.941926 6.54601046"></polygon>
                <polygon id="Fill-5" fill="#4285F4" points="68.7680879 13.124131 85.9377866 13.124131 85.9377866 6.5531066 68.7680879 6.5531066"></polygon>
                <polygon id="Fill-6" fill="#3362B5" points="85.9425174 6.57084695 103.111625 6.57084695 103.111625 0.000413941419 85.9425174 0.000413941419"></polygon>
                <polygon id="Fill-7" fill="#66BBFF" points="68.7680879 6.57794309 85.9377866 6.57794309 85.9377866 0.00691873514 68.7680879 0.00691873514"></polygon>
                <polygon id="Fill-8" fill="#3362B5" points="51.6190863 19.6987034 68.788785 19.6987034 68.788785 13.127679 51.6190863 13.127679"></polygon>
                <polygon id="Fill-9" fill="#66BBFF" points="68.7680879 19.7057995 85.9377866 19.7057995 85.9377866 13.1347752 68.7680879 13.1347752"></polygon>
                <polygon id="Fill-10" fill="#66BBFF" points="120.418515 19.7057995 137.588214 19.7057995 137.588214 13.1347752 120.418515 13.1347752"></polygon>
                <polygon id="Fill-11" fill="#3362B5" points="103.268331 19.7057995 120.43803 19.7057995 120.43803 13.1347752 103.268331 13.1347752"></polygon>
                <polygon id="Fill-12" fill="#66BBFF" points="17.219963 13.1170348 34.3896617 13.1170348 34.3896617 6.54601046 17.219963 6.54601046"></polygon>
                <polygon id="Fill-13" fill="#3362B5" points="17.219963 6.57084695 34.3890704 6.57084695 34.3890704 0.000413941419 17.219963 0.000413941419"></polygon>
                <polygon id="Fill-14" fill="#3362B5" points="17.219963 19.6833284 34.3890704 19.6833284 34.3890704 13.1123041 17.219963 13.1123041"></polygon>
                <polygon id="Fill-15" fill="#99D6FF" points="0 19.6833284 17.1696987 19.6833284 17.1696987 13.1123041 0 13.1123041"></polygon>
                <polygon id="Fill-16" fill="#4285F4" points="34.40208 13.124131 51.5717787 13.124131 51.5717787 6.5531066 34.40208 6.5531066"></polygon>
            </g>
            <g id="Group-6" transform="translate(134.115943, 134.835806) scale(-1, 1) translate(-134.115943, -134.835806) translate(65.115943, 126.835806)" fill-rule="nonzero">
                <polygon id="Fill-1" fill="#66BBFF" points="117.917017 15.6844561 137.561148 15.6844561 137.561148 8.16644138 117.917017 8.16644138"></polygon>
                <polygon id="Fill-2" fill="#4285F4" points="98.2675662 15.6921402 117.911697 15.6921402 117.911697 8.17412549 98.2675662 8.17412549"></polygon>
                <polygon id="Fill-3" fill="#66BBFF" points="39.3286717 15.6844561 58.9728025 15.6844561 58.9728025 8.16644138 39.3286717 8.16644138"></polygon>
                <polygon id="Fill-4" fill="#3362B5" points="39.3286717 8.19481348 58.9728025 8.19481348 58.9728025 0.676798784 39.3286717 0.676798784"></polygon>
                <polygon id="Fill-5" fill="#66BBFF" points="98.2675662 8.20249759 117.911697 8.20249759 117.911697 0.684482894 98.2675662 0.684482894"></polygon>
                <polygon id="Fill-6" fill="#66BBFF" points="78.5986097 15.6844561 98.2427406 15.6844561 98.2427406 8.16644138 78.5986097 8.16644138"></polygon>
                <polygon id="Fill-7" fill="#4285F4" points="58.9491591 15.6921402 78.59329 15.6921402 78.59329 8.17412549 58.9491591 8.17412549"></polygon>
                <polygon id="Fill-8" fill="#3362B5" points="78.5986097 8.19481348 98.2427406 8.19481348 98.2427406 0.676798784 78.5986097 0.676798784"></polygon>
                <polygon id="Fill-9" fill="#66BBFF" points="0.0090824574 15.6844561 19.6532133 15.6844561 19.6532133 8.16644138 0.0090824574 8.16644138"></polygon>
                <polygon id="Fill-10" fill="#4285F4" points="19.6295699 15.6921402 39.2737007 15.6921402 39.2737007 8.17412549 19.6295699 8.17412549"></polygon>
                <polygon id="Fill-11" fill="#66BBFF" points="19.6295699 8.20249759 39.2737007 8.20249759 39.2737007 0.684482894 19.6295699 0.684482894"></polygon>
            </g>
            <path d="M88.4857149,137.213734 L92.4607639,142.513406 L174.092607,142.513406 L177.877918,137.213734 L223.400948,137.213734 C223.400948,137.213734 224.114979,145.849492 216.435598,145.849492 C213.175171,145.849492 210.376973,158.164164 203.80706,158.164164 L56.4376578,158.164164 C51.2024147,158.164164 44.5450203,137.213734 44.5450203,137.213734 L88.4857149,137.213734 Z" id="Fill-12" fill="#424242" fill-rule="nonzero" transform="translate(133.981762, 147.688949) scale(-1, 1) translate(-133.981762, -147.688949) "></path>
            <path d="M56.072072,151.147212 C58.0593009,155.007 60.303652,158.163987 62.3346213,158.163987 L209.704023,158.163987 C213.296049,158.163987 215.759693,154.483889 217.788298,151.147212 L56.072072,151.147212 Z" id="Fill-14" fill="#FF3D00" fill-rule="nonzero" transform="translate(136.930185, 154.655599) scale(-1, 1) translate(-136.930185, -154.655599) "></path>
            <path d="M0.128193,242.784556 L0.128193,149.17213 C1.2681225,150.10362 3.00998075,150.699577 4.96229856,150.699577 C6.88013836,150.699577 8.59398322,150.124678 9.73463101,149.221266 C10.8745605,150.124678 12.5891237,150.699577 14.5069635,150.699577 C16.4248033,150.699577 18.1386481,150.124678 19.2792959,149.221266 C20.4192254,150.124678 22.1337886,150.699577 24.0516284,150.699577 C25.9687499,150.699577 27.683313,150.124678 28.8232425,149.221266 C29.9638903,150.124678 31.6777352,150.699577 33.595575,150.699577 C35.5134147,150.699577 37.2272596,150.124678 38.3679074,149.221266 C39.5078369,150.124678 41.2224,150.699577 43.1402398,150.699577 C45.0580796,150.699577 46.7719245,150.124678 47.9125723,149.221266 C49.0525018,150.124678 50.7670649,150.699577 52.6841864,150.699577 C54.6020262,150.699577 56.3165894,150.124678 57.4565189,149.221266 C58.5971667,150.124678 60.3110115,150.699577 62.2288513,150.699577 C64.1466911,150.699577 65.860536,150.124678 67.0011837,149.221266 C68.1411132,150.124678 69.8556764,150.699577 71.7735162,150.699577 C73.6906377,150.699577 75.4052008,150.124678 76.5458486,149.221266 C77.7252842,150.095196 79.4448754,150.686941 81.3749261,150.698173 C83.2690623,150.686941 84.9613584,150.115553 86.0897952,149.221266 C87.3317222,150.115553 89.0240183,150.687643 90.9188727,150.698173 C92.7770943,150.687643 94.4406587,150.138015 95.5690955,149.273211 C96.8878798,150.124678 98.6017246,150.699577 100.519565,150.699577 C102.437404,150.699577 104.151249,150.124678 105.291897,149.221266 C106.431827,150.124678 108.14639,150.699577 110.064229,150.699577 C111.981351,150.699577 113.695914,150.124678 114.836562,149.221266 C115.976491,150.124678 117.691055,150.699577 119.608176,150.699577 C121.526016,150.699577 123.240579,150.124678 124.380509,149.221266 C125.521156,150.124678 127.235001,150.699577 129.152841,150.699577 C131.049132,150.699577 132.745738,150.136611 133.885667,149.250748 C135.022724,150.102216 136.76099,150.696769 138.70828,150.699577 C140.62181,150.696769 142.331345,150.122572 143.46912,149.221266 C144.62988,150.122572 146.340133,150.696769 148.252945,150.699577 C150.165757,150.696769 151.87601,150.122572 153.013785,149.221266 C154.174545,150.122572 155.88408,150.696769 157.79761,150.699577 C159.710422,150.696769 161.419957,150.122572 162.55845,149.221266 C163.718491,150.122572 165.428745,150.696769 167.341557,150.699577 C169.218454,150.696769 170.899257,150.145035 172.037032,149.273211 C173.265311,150.124678 174.979874,150.699577 176.897714,150.699577 C178.814836,150.699577 180.529399,150.124678 181.669328,149.221266 C182.809976,150.124678 184.523821,150.699577 186.441661,150.699577 C188.359501,150.699577 190.074064,150.124678 191.213993,149.221266 C192.354641,150.124678 194.068486,150.699577 195.986326,150.699577 C197.904165,150.699577 199.61801,150.124678 200.758658,149.221266 C201.898588,150.124678 203.613151,150.699577 205.53099,150.699577 C207.448112,150.699577 209.162675,150.124678 210.302605,149.221266 C211.482758,150.095196 213.20235,150.686941 215.1324,150.698173 C217.026537,150.686941 218.718114,150.115553 219.84727,149.221266 C221.089196,150.115553 222.781493,150.687643 224.676347,150.698173 C226.534569,150.687643 228.198133,150.138015 229.325852,149.273211 C230.644636,150.124678 232.359199,150.699577 234.277039,150.699577 C236.194879,150.699577 237.908723,150.124678 239.049371,149.221266 C240.189301,150.124678 241.903864,150.699577 243.821704,150.699577 C245.738825,150.699577 247.453388,150.124678 248.593318,149.221266 C249.733966,150.124678 251.44781,150.699577 253.36565,150.699577 L253.36565,243.742019 L0.128193,242.784556 Z" id="Fill-16" fill="url(#linearGradient-1)" fill-rule="nonzero" transform="translate(126.746921, 196.457075) scale(-1, 1) translate(-126.746921, -196.457075) "></path>
            <g id="Page-1" opacity="0.400000006" transform="translate(214.102932, 74.168496)" fill-rule="nonzero">
                <polygon id="Fill-2" fill="#66BBFF" points="93.9959482 47.4278814 125.261169 47.4278814 125.261169 35.4623526 93.9959482 35.4623526"></polygon>
                <polygon id="Fill-3" fill="#3362B5" points="93.9959482 35.5075787 125.261169 35.5075787 125.261169 23.5431266 93.9959482 23.5431266"></polygon>
                <polygon id="Fill-5" fill="#4285F4" points="125.22348 47.4408031 156.488701 47.4408031 156.488701 35.4752743 125.22348 35.4752743"></polygon>
                <polygon id="Fill-7" fill="#66BBFF" points="125.22348 35.5205004 156.488701 35.5205004 156.488701 23.5549716 125.22348 23.5549716"></polygon>
                <polygon id="Fill-7" fill="#66BBFF" points="62.6826946 35.5205004 93.947915 35.5205004 93.947915 23.5549716 62.6826946 23.5549716"></polygon>
                <polygon id="Fill-8" fill="#3362B5" points="93.9959482 59.4127928 125.261169 59.4127928 125.261169 47.447264 93.9959482 47.447264"></polygon>
                <polygon id="Fill-9" fill="#66BBFF" points="125.22348 59.4257146 156.488701 59.4257146 156.488701 47.4601857 125.22348 47.4601857"></polygon>
                <polygon id="Fill-6" fill="#66BBFF" points="62.779661 11.964452 94.0438046 11.964452 94.0438046 0 62.779661 0"></polygon>
                <polygon id="Fill-11" fill="#3362B5" points="93.9959482 11.9655288 125.261169 11.9655288 125.261169 4.40536496e-13 93.9959482 4.40536496e-13"></polygon>
                <polygon id="Fill-12" fill="#66BBFF" points="31.3567494 47.4278814 62.6219698 47.4278814 62.6219698 35.4623526 31.3567494 35.4623526"></polygon>
                <polygon id="Fill-14" fill="#3362B5" points="31.3567494 59.3847957 62.620893 59.3847957 62.620893 47.4192669 31.3567494 47.4192669"></polygon>
                <polygon id="Fill-15" fill="#99D6FF" points="0 59.3847957 31.2652204 59.3847957 31.2652204 47.4192669 0 47.4192669"></polygon>
                <polygon id="Fill-16" fill="#4285F4" points="62.6445828 47.4408031 93.9098033 47.4408031 93.9098033 35.4752743 62.6445828 35.4752743"></polygon>
                <polygon id="Fill-1" fill="#4285F4" points="62.6445828 23.8984302 93.9098033 23.8984302 93.9098033 11.9329014 62.6445828 11.9329014"></polygon>
                <polygon id="Fill-4" fill="#66BBFF" points="93.9485685 23.8855085 125.213789 23.8855085 125.213789 11.9199797 93.9485685 11.9199797"></polygon>
                <polygon id="Fill-3" fill="#3362B5" points="31.6167075 35.5075787 62.8819279 35.5075787 62.8819279 23.5431266 31.6167075 23.5431266"></polygon>
                <polygon id="Fill-4" fill="#66BBFF" points="31.6167075 23.8855085 62.8819279 23.8855085 62.8819279 11.9199797 31.6167075 11.9199797"></polygon>
                <polygon id="Fill-5" fill="#4285F4" points="125.221327 23.8984302 156.486547 23.8984302 156.486547 11.9329014 125.221327 11.9329014"></polygon>
            </g>
            <g id="Group-2" transform="translate(299.009686, 125.532688) scale(-1, 1) translate(-299.009686, -125.532688) translate(209.009686, 104.532688)" fill-rule="nonzero">
                <polygon id="Fill-28" fill="#66BBFF" points="72.1633686 41.4431208 108.007967 41.4431208 108.007967 27.7246206 72.1633686 27.7246206"></polygon>
                <polygon id="Fill-29" fill="#3362B5" points="72.1633686 27.7772272 108.007967 27.7772272 108.007967 14.0587271 72.1633686 14.0587271"></polygon>
                <polygon id="Fill-29" fill="#3362B5" points="143.911553 27.7772272 179.756151 27.7772272 179.756151 14.0587271 143.911553 14.0587271"></polygon>
                <polygon id="Fill-31" fill="#66BBFF" points="0.507272549 41.4431208 36.3518709 41.4431208 36.3518709 27.7246206 0.507272549 27.7246206"></polygon>
                <polygon id="Fill-32" fill="#4285F4" points="36.3619194 41.4573068 72.2065178 41.4573068 72.2065178 27.7388067 36.3619194 27.7388067"></polygon>
                <polygon id="Fill-33" fill="#3362B5" points="0.44845352 27.8219071 36.2930519 27.8219071 36.2930519 14.103407 0.44845352 14.103407"></polygon>
                <polygon id="Fill-34" fill="#66BBFF" points="143.910492 41.4431208 179.75509 41.4431208 179.75509 27.7246206 143.910492 27.7246206"></polygon>
                <polygon id="Fill-35" fill="#4285F4" points="108.109043 41.4573068 143.953641 41.4573068 143.953641 27.7388067 108.109043 27.7388067"></polygon>
                <polygon id="Fill-28" fill="#66BBFF" points="72.1633686 14.0328167 108.007967 14.0328167 108.007967 0.314316555 72.1633686 0.314316555"></polygon>
                <polygon id="Fill-32" fill="#4285F4" points="36.3619194 14.0328167 72.2065178 14.0328167 72.2065178 0.314316555 36.3619194 0.314316555"></polygon>
                <polygon id="Fill-35" fill="#4285F4" points="108.109043 14.0328167 143.953641 14.0328167 143.953641 0.314316555 108.109043 0.314316555"></polygon>
                <polygon id="Fill-36" fill="#66BBFF" points="108.109043 27.7914133 143.953641 27.7914133 143.953641 14.0729132 108.109043 14.0729132"></polygon>
                <polygon id="Fill-36" fill="#66BBFF" points="36.3608585 27.7914133 72.2054569 27.7914133 72.2054569 14.0729132 36.3608585 14.0729132"></polygon>
            </g>
            <g id="Group-10" transform="translate(162.739709, 82.726392) scale(-1, 1) translate(-162.739709, -82.726392) translate(73.239709, 13.726392)">
                <path d="M3.30953313,47.0343171 C3.30953313,47.0343171 30.8914675,43.0225026 66.4979767,3.4041788 C119.241706,33.0000592 169.805512,46.0313635 169.805512,46.0313635" id="Stroke-19" stroke="#E5A505" stroke-width="3"></path>
                <polygon id="Fill-21" fill="#CE9005" fill-rule="nonzero" points="63.8914321 137.351214 69.0428593 137.351214 69.0428593 0.472868288 63.8914321 0.472868288"></polygon>
                <polygon id="Fill-23" fill="#CE9005" fill-rule="nonzero" points="27.6318918 137.351214 32.7833189 137.351214 32.7833189 31.0352915 27.6318918 31.0352915"></polygon>
                <polygon id="Fill-24" fill="#E5A505" fill-rule="nonzero" points="32.4479608 46.1352999 30.4429992 48.827812 63.6459189 73.5507847 65.6504076 70.8582726"></polygon>
                <polygon id="Fill-25" fill="#E5A505" fill-rule="nonzero" points="32.4479608 72.2180054 30.4429992 74.9105174 63.6459189 99.6334901 65.6504076 96.9409781"></polygon>
                <polygon id="Fill-38" fill="#FBBC05" fill-rule="nonzero" points="0.693058319 48.9395035 178.932721 48.9395035 178.932721 43.7880763 0.693058319 43.7880763"></polygon>
                <polygon id="Fill-39" fill="#FBBC05" fill-rule="nonzero" points="27.778481 75.4475539 69.1747895 75.4475539 69.1747895 70.2961268 27.778481 70.2961268"></polygon>
                <polygon id="Fill-40" fill="#FBBC05" fill-rule="nonzero" points="27.778481 101.809488 69.1747895 101.809488 69.1747895 96.658061 27.778481 96.658061"></polygon>
            </g>
            <polyline id="Stroke-41" stroke="#D1D3D4" stroke-width="2" transform="translate(95.509996, 94.900593) scale(-1, 1) translate(-95.509996, -94.900593) " points="86.76873 98.5623672 95.5374813 91.2388196 104.251262 98.325933"></polyline>
            <path d="M94,91.2385831 L94,57.2024369" id="Stroke-42" stroke="#D1D3D4" stroke-width="2" transform="translate(95.000000, 74.220510) scale(-1, 1) translate(-95.000000, -74.220510) "></path>
            <polygon id="Fill-43" fill="#4285F4" fill-rule="nonzero" transform="translate(95.417019, 101.185958) scale(-1, 1) translate(-95.417019, -101.185958) " points="85.73445 104.891768 105.099589 104.891768 105.099589 97.480149 85.73445 97.480149"></polygon>
            <polygon id="Fill-37" fill="#F7F7F7" fill-rule="nonzero" transform="translate(287.606397, 185.880023) scale(-1, 1) translate(-287.606397, -185.880023) " points="182.211401 226.372903 393.001394 226.372903 393.001394 145.387143 182.211401 145.387143"></polygon>
        </g>
    </g>
</svg>